HIERARCHY
ROOT Root
{
  OFFSET 0.0 0.0 0.0
  CHANNELS 6 Xposition Yposition Zposition Zrotation Yrotation Xrotation
  JOINT Hips
  {
    OFFSET 0.0 100.0 0.0
    CHANNELS 6 Xposition Yposition Zposition Zrotation Yrotation Xrotation
    JOINT Spine1
    {
      OFFSET 5.003913 -0.037094 -0.013727
      CHANNELS 3 Zrotation Yrotation Xrotation
      JOINT Spine2
      {
        OFFSET 7.125363 -1e-06 0.0
        CHANNELS 3 Zrotation Yrotation Xrotation
        JOINT Chest
        {
          OFFSET 7.594027 1e-06 0.0
          CHANNELS 3 Zrotation Yrotation Xrotation
          JOINT Neck1
          {
            OFFSET 26.313086 -0.460272 -0.181672
            CHANNELS 3 Zrotation Yrotation Xrotation
            JOINT Neck2
            {
              OFFSET 8.045911 0.0 0.0
              CHANNELS 3 Zrotation Yrotation Xrotation
              JOINT Head
              {
                OFFSET 6.432774 0.0 0.0
                CHANNELS 3 Zrotation Yrotation Xrotation
                JOINT HeadEnd
                {
                  OFFSET 16.169773 0.06451 0.00362
                  CHANNELS 3 Zrotation Yrotation Xrotation
                }
                JOINT Jaw
                {
                  OFFSET 0.108741 3.12938 0.002639
                  CHANNELS 3 Zrotation Yrotation Xrotation
                }
                JOINT LeftEye
                {
                  OFFSET 4.45173 8.166359 3.206392
                  CHANNELS 3 Zrotation Yrotation Xrotation
                }
                JOINT RightEye
                {
                  OFFSET 4.436895 8.135758 -3.222429
                  CHANNELS 3 Zrotation Yrotation Xrotation
                }
              }
            }
          }
          JOINT LeftShoulder
          {
            OFFSET 23.218927 5.195579 1.621656
            CHANNELS 3 Zrotation Yrotation Xrotation
            JOINT LeftArm
            {
              OFFSET 15.902118 2e-06 -2e-06
              CHANNELS 3 Zrotation Yrotation Xrotation
              JOINT LeftForeArm
              {
                OFFSET 28.739307 0.0 -1e-06
                CHANNELS 3 Zrotation Yrotation Xrotation
                JOINT LeftHand
                {
                  OFFSET 27.093981 -4e-06 0.0
                  CHANNELS 3 Zrotation Yrotation Xrotation
                  JOINT LeftHandThumb1
                  {
                    OFFSET 2.276781 3.380274 0.83384
                    CHANNELS 3 Zrotation Yrotation Xrotation
                    JOINT LeftHandThumb2
                    {
                      OFFSET 4.705309 -1e-06 -1e-06
                      CHANNELS 3 Zrotation Yrotation Xrotation
                      JOINT LeftHandThumb3
                      {
                        OFFSET 2.798515 0.0 3e-06
                        CHANNELS 3 Zrotation Yrotation Xrotation
                        JOINT LeftHandThumbEnd
                        {
                          OFFSET 3.180793 4e-06 -4e-06
                          CHANNELS 3 Zrotation Yrotation Xrotation
                        }
                      }
                    }
                  }
                  JOINT LeftHandIndex1
                  {
                    OFFSET 3.247786 2.352677 0.137192
                    CHANNELS 3 Zrotation Yrotation Xrotation
                    JOINT LeftHandIndex2
                    {
                      OFFSET 6.367095 1e-06 0.0
                      CHANNELS 3 Zrotation Yrotation Xrotation
                      JOINT LeftHandIndex3
                      {
                        OFFSET 3.662364 0.0 0.0
                        CHANNELS 3 Zrotation Yrotation Xrotation
                        JOINT LeftHandIndex4
                        {
                          OFFSET 2.329242 4e-06 -4e-06
                          CHANNELS 3 Zrotation Yrotation Xrotation
                          JOINT LeftHandIndexEnd
                          {
                            OFFSET 2.767823 1e-06 0.0
                            CHANNELS 3 Zrotation Yrotation Xrotation
                          }
                        }
                      }
                    }
                  }
                  JOINT LeftHandMiddle1
                  {
                    OFFSET 3.163612 0.945023 -0.406112
                    CHANNELS 3 Zrotation Yrotation Xrotation
                    JOINT LeftHandMiddle2
                    {
                      OFFSET 6.276789 3e-06 0.0
                      CHANNELS 3 Zrotation Yrotation Xrotation
                      JOINT LeftHandMiddle3
                      {
                        OFFSET 4.35652 -1e-06 4e-06
                        CHANNELS 3 Zrotation Yrotation Xrotation
                        JOINT LeftHandMiddle4
                        {
                          OFFSET 2.996877 0.0 8e-06
                          CHANNELS 3 Zrotation Yrotation Xrotation
                          JOINT LeftHandMiddleEnd
                          {
                            OFFSET 2.323256 3e-06 -4e-06
                            CHANNELS 3 Zrotation Yrotation Xrotation
                          }
                        }
                      }
                    }
                  }
                  JOINT LeftHandRing1
                  {
                    OFFSET 2.882606 -0.309162 0.107445
                    CHANNELS 3 Zrotation Yrotation Xrotation
                    JOINT LeftHandRing2
                    {
                      OFFSET 6.033198 0.0 4e-06
                      CHANNELS 3 Zrotation Yrotation Xrotation
                      JOINT LeftHandRing3
                      {
                        OFFSET 4.350578 3e-06 0.0
                        CHANNELS 3 Zrotation Yrotation Xrotation
                        JOINT LeftHandRing4
                        {
                          OFFSET 2.651321 2e-06 -7e-06
                          CHANNELS 3 Zrotation Yrotation Xrotation
                          JOINT LeftHandRingEnd
                          {
                            OFFSET 1.937663 1e-06 -4e-06
                            CHANNELS 3 Zrotation Yrotation Xrotation
                          }
                        }
                      }
                    }
                  }
                  JOINT LeftHandPinky1
                  {
                    OFFSET 2.865315 -1.525436 0.575687
                    CHANNELS 3 Zrotation Yrotation Xrotation
                    JOINT LeftHandPinky2
                    {
                      OFFSET 5.54936 1e-06 -8e-06
                      CHANNELS 3 Zrotation Yrotation Xrotation
                      JOINT LeftHandPinky3
                      {
                        OFFSET 3.070974 0.0 -4e-06
                        CHANNELS 3 Zrotation Yrotation Xrotation
                        JOINT LeftHandPinky4
                        {
                          OFFSET 1.549672 1e-06 0.0
                          CHANNELS 3 Zrotation Yrotation Xrotation
                          JOINT LeftHandPinkyEnd
                          {
                            OFFSET 1.952123 0.0 0.0
                            CHANNELS 3 Zrotation Yrotation Xrotation
                          }
                        }
                      }
                    }
                  }
                }
              }
            }
          }
          JOINT RightShoulder
          {
            OFFSET 23.161716 5.296122 -1.380114
            CHANNELS 3 Zrotation Yrotation Xrotation
            JOINT RightArm
            {
              OFFSET -16.027195 -2e-06 1.1e-05
              CHANNELS 3 Zrotation Yrotation Xrotation
              JOINT RightForeArm
              {
                OFFSET -28.736639 4e-06 2e-06
                CHANNELS 3 Zrotation Yrotation Xrotation
                JOINT RightHand
                {
                  OFFSET -27.133619 6e-06 0.0
                  CHANNELS 3 Zrotation Yrotation Xrotation
                  JOINT RightHandThumb1
                  {
                    OFFSET -2.274328 -3.351035 -0.83067
                    CHANNELS 3 Zrotation Yrotation Xrotation
                    JOINT RightHandThumb2
                    {
                      OFFSET -4.703594 -3e-06 2e-06
                      CHANNELS 3 Zrotation Yrotation Xrotation
                      JOINT RightHandThumb3
                      {
                        OFFSET -2.794935 -4e-06 -3e-06
                        CHANNELS 3 Zrotation Yrotation Xrotation
                        JOINT RightHandThumbEnd
                        {
                          OFFSET -3.183852 4e-06 1e-06
                          CHANNELS 3 Zrotation Yrotation Xrotation
                        }
                      }
                    }
                  }
                  JOINT RightHandIndex1
                  {
                    OFFSET -3.253496 -2.33755 -0.127667
                    CHANNELS 3 Zrotation Yrotation Xrotation
                    JOINT RightHandIndex2
                    {
                      OFFSET -6.344434 0.0 0.0
                      CHANNELS 3 Zrotation Yrotation Xrotation
                      JOINT RightHandIndex3
                      {
                        OFFSET -3.654871 0.0 -8e-06
                        CHANNELS 3 Zrotation Yrotation Xrotation
                        JOINT RightHandIndex4
                        {
                          OFFSET -2.327586 -1e-06 0.0
                          CHANNELS 3 Zrotation Yrotation Xrotation
                          JOINT RightHandIndexEnd
                          {
                            OFFSET -2.770001 3e-06 8e-06
                            CHANNELS 3 Zrotation Yrotation Xrotation
                          }
                        }
                      }
                    }
                  }
                  JOINT RightHandMiddle1
                  {
                    OFFSET -3.168223 -0.944764 0.411762
                    CHANNELS 3 Zrotation Yrotation Xrotation
                    JOINT RightHandMiddle2
                    {
                      OFFSET -6.266691 -1e-06 -4e-06
                      CHANNELS 3 Zrotation Yrotation Xrotation
                      JOINT RightHandMiddle3
                      {
                        OFFSET -4.348901 0.0 0.0
                        CHANNELS 3 Zrotation Yrotation Xrotation
                        JOINT RightHandMiddle4
                        {
                          OFFSET -3.00024 2e-06 -4e-06
                          CHANNELS 3 Zrotation Yrotation Xrotation
                          JOINT RightHandMiddleEnd
                          {
                            OFFSET -2.321477 -4e-06 -4e-06
                            CHANNELS 3 Zrotation Yrotation Xrotation
                          }
                        }
                      }
                    }
                  }
                  JOINT RightHandRing1
                  {
                    OFFSET -2.885654 0.293261 -0.119232
                    CHANNELS 3 Zrotation Yrotation Xrotation
                    JOINT RightHandRing2
                    {
                      OFFSET -6.032835 -1e-06 -4e-06
                      CHANNELS 3 Zrotation Yrotation Xrotation
                      JOINT RightHandRing3
                      {
                        OFFSET -4.33881 0.0 -4e-06
                        CHANNELS 3 Zrotation Yrotation Xrotation
                        JOINT RightHandRing4
                        {
                          OFFSET -2.654903 -4e-06 -4e-06
                          CHANNELS 3 Zrotation Yrotation Xrotation
                          JOINT RightHandRingEnd
                          {
                            OFFSET -1.935122 0.0 4e-06
                            CHANNELS 3 Zrotation Yrotation Xrotation
                          }
                        }
                      }
                    }
                  }
                  JOINT RightHandPinky1
                  {
                    OFFSET -2.866241 1.503904 -0.60527
                    CHANNELS 3 Zrotation Yrotation Xrotation
                    JOINT RightHandPinky2
                    {
                      OFFSET -5.553177 -2e-06 0.0
                      CHANNELS 3 Zrotation Yrotation Xrotation
                      JOINT RightHandPinky3
                      {
                        OFFSET -3.062664 -1e-06 -4e-06
                        CHANNELS 3 Zrotation Yrotation Xrotation
                        JOINT RightHandPinky4
                        {
                          OFFSET -1.546529 2e-06 4e-06
                          CHANNELS 3 Zrotation Yrotation Xrotation
                          JOINT RightHandPinkyEnd
                          {
                            OFFSET -1.952341 0.0 -4e-06
                            CHANNELS 3 Zrotation Yrotation Xrotation
                          }
                        }
                      }
                    }
                  }
                }
              }
            }
          }
        }
      }
    }
    JOINT LeftLeg
    {
      OFFSET -8.443107 2.567604 10.043214
      CHANNELS 3 Zrotation Yrotation Xrotation
      JOINT LeftShin
      {
        OFFSET 43.229198 1e-06 -1e-06
        CHANNELS 3 Zrotation Yrotation Xrotation
        JOINT LeftFoot
        {
          OFFSET 42.298611 1e-06 1e-06
          CHANNELS 3 Zrotation Yrotation Xrotation
          JOINT LeftToeBase
          {
            OFFSET 14.165858 1e-06 0.0
            CHANNELS 3 Zrotation Yrotation Xrotation
            JOINT LeftToeEnd
            {
              OFFSET 6.7141 -0.234461 0.0
              CHANNELS 3 Zrotation Yrotation Xrotation
            }
          }
        }
      }
    }
    JOINT RightLeg
    {
      OFFSET -8.303923 2.592729 -10.047278
      CHANNELS 3 Zrotation Yrotation Xrotation
      JOINT RightShin
      {
        OFFSET -43.369682 0.0 1e-06
        CHANNELS 3 Zrotation Yrotation Xrotation
        JOINT RightFoot
        {
          OFFSET -42.260784 4e-06 2e-06
          CHANNELS 3 Zrotation Yrotation Xrotation
          JOINT RightToeBase
          {
            OFFSET -14.222245 -2e-06 -1e-06
            CHANNELS 3 Zrotation Yrotation Xrotation
            JOINT RightToeEnd
            {
              OFFSET -6.660062 0.232574 -2e-06
              CHANNELS 3 Zrotation Yrotation Xrotation
            }
          }
        }
      }
    }
  }
}
MOTION
Frames: 4
Frame Time: 0.03333333333333333
0.0 0.0 0.0 0.0 -0.0 0.0 0.305108 48.664238 -0.581283 92.455414 -64.425064 87.865295 12.599946 -0.561607 -0.924346 -5.956744 -0.311909 -0.330539 12.990692 0.809207 -2.01839 21.304312 0.877396 2.631226 -2.503355 -0.677676 0.201458 -20.492071 0.468716 -0.033449 6e-06 0.0 -0.0 -0.295736 -0.163466 -0.009405 -0.388156 0.013628 -0.052836 -0.438212 -0.339806 0.024588 -51.687298 -64.153282 56.34824 97.791336 -5.366697 -24.666468 6.843916 -1.020169 0.035861 25.576141 68.915977 17.196833 17.636627 -26.322727 52.411182 -19.466658 -14.395596 29.410381 -1e-06 -8.77482 -2e-06 15.148173 -18.041403 6.747318 -0.609776 -1.795653 -3.889327 -4.807088 -11.046812 -2.937849 4e-06 -20.976015 0.0 -5.019968 -25.033552 -4.031879 6e-06 -0.0 2e-06 -10.634533 -5.68697 -3.565585 10.573272 -17.922947 -3.1139 2e-06 -13.821211 1e-06 -0.501778 -31.181505 -4.027014 -10.93587 -59.227516 7.374392 -13.982712 -7.150198 -2.875041 13.772727 -8.40149 -3.218239 0.347734 -34.211544 0.771654 -0.963029 -17.733366 2.621019 0.0 -0.0 -0.0 -17.346413 -20.095217 -4.20178 21.757555 -1.638371 3.866428 2e-06 -6.338822 0.0 -1.697588 -22.591738 -6.194005 -0.0 -5e-06 -2e-06 159.998856 -71.646973 22.082661 90.577591 -5.607085 -22.157173 4.899596 -0.658881 -0.054452 62.143337 74.374176 61.114033 22.182114 -20.375895 49.933319 -16.701807 -16.74353 28.476526 -1e-06 -12.690601 -1e-06 15.700467 -17.277746 2.964482 -0.105919 -1.513856 -4.275881 -5.039041 -5.612869 -2.953556 4e-06 -11.020521 -1e-06 -6.111298 -15.89533 -3.84047 -0.0 -2e-06 -0.0 -10.283371 -5.680287 -4.341838 11.028296 -11.302404 -2.372633 -1.384269 -14.238577 -6.32012 -0.625439 -26.924187 -3.8276 -4.399804 -49.651268 -3.844203 -13.708526 -7.363474 -3.720938 18.14115 -14.052737 -3.242674 5e-06 -18.787266 -1e-06 -0.429713 -8.456043 2.555504 0.0 -1e-06 0.0 -15.923538 -20.094479 -5.473584 30.41921 -7.190827 1.735926 2e-06 -8.162921 -0.0 -1.861903 -22.861467 -6.167942 0.0 -2e-06 -0.0 114.371887 -1.424108 -0.229012 110.227348 0.50526 0.319741 -72.223076 1.225363 -4.940042 -7.425307 1.596115 2.315716 -1.0 0.0 -0.0 -63.752148 -4.41337 8.484903 107.66925 -1.008832 -0.132466 -70.563354 10.911305 -17.836021 -7.068491 0.367499 2.1635 -1.000003 -0.0 -1e-06 
0.0 0.0 0.0 0.0 -0.0 0.0 0.256833 48.677368 -0.577882 92.534294 -64.413177 87.815002 12.608911 -0.56121 -0.923155 -5.975484 -0.334426 -0.344421 12.992513 0.829467 -2.025651 21.308731 0.859718 2.60592 -2.510927 -0.688779 0.135144 -20.584415 0.527565 -0.053019 6e-06 0.0 -0.0 -0.298613 -0.174695 -0.007813 -0.394383 -0.006632 -0.048585 -0.442531 -0.342384 0.023757 -51.523415 -64.153587 56.166878 97.773682 -5.395163 -24.390036 6.763505 -1.004922 0.025974 25.010294 69.085899 16.829107 17.636631 -26.322727 52.411179 -19.466656 -14.395596 29.410378 2e-06 -8.774821 -3e-06 15.130724 -18.027227 6.785043 -0.609776 -1.795653 -3.889327 -4.807088 -11.046807 -2.937849 5e-06 -20.976011 0.0 -5.019969 -25.033552 -4.031878 6e-06 -0.0 2e-06 -10.634534 -5.686969 -3.565586 10.573275 -17.922951 -3.1139 2e-06 -13.821211 1e-06 -0.501779 -31.181505 -4.027014 -10.980303 -59.276146 7.400965 -13.982712 -7.150197 -2.875041 13.772728 -8.401489 -3.21824 0.347735 -34.211552 0.771655 -0.963029 -17.73337 2.62102 1e-06 -0.0 -0.0 -17.346416 -20.095217 -4.20178 21.757557 -1.638373 3.866428 1e-06 -6.338824 0.0 -1.697589 -22.591742 -6.194004 0.0 -3e-06 -3e-06 160.257339 -71.564316 21.807667 90.611443 -5.60093 -22.004627 4.827395 -0.691475 -0.050941 61.469879 74.544456 60.513954 22.182116 -20.375898 49.933334 -16.701817 -16.74353 28.476538 -3e-06 -12.690603 -0.0 15.730296 -17.316483 2.953588 -0.105919 -1.513856 -4.275883 -5.039042 -5.612871 -2.953557 4e-06 -11.020525 -3e-06 -6.111297 -15.89533 -3.840472 -1e-06 -0.0 0.0 -10.283371 -5.680288 -4.34184 11.028296 -11.302406 -2.372634 -1.384269 -14.238581 -6.320124 -0.625437 -26.924194 -3.827603 -4.405464 -49.700321 -3.8506 -13.708527 -7.363476 -3.720942 18.141153 -14.05274 -3.242676 6e-06 -18.787268 -2e-06 -0.429711 -8.456045 2.555504 -0.0 1e-06 0.0 -15.923538 -20.094484 -5.473587 30.419218 -7.190824 1.735926 2e-06 -8.162925 -0.0 -1.861903 -22.861467 -6.167942 0.0 -2e-06 -1e-06 114.389252 -1.410585 -0.177847 110.203339 0.531094 0.329427 -72.247437 1.330136 -4.895031 -7.498409 1.589741 2.304867 -0.999998 0.0 -0.0 -63.739559 -4.399554 8.481223 107.683502 -1.010957 -0.141475 -70.638542 10.84924 -17.902338 -7.030472 0.372122 2.161598 -1.000003 0.0 -0.0 
0.0 0.0 0.0 0.0 -0.0 0.0 0.203981 48.679604 -0.558148 92.630173 -64.385216 87.749847 12.61156 -0.545399 -0.927927 -5.999515 -0.354655 -0.355195 13.013569 0.822938 -2.01791 21.29129 0.849769 2.584908 -2.518552 -0.700128 0.065026 -20.614664 0.568995 -0.104719 6e-06 0.0 0.0 -0.301652 -0.18044 -0.007507 -0.402443 -0.017763 -0.044546 -0.446944 -0.342673 0.020337 -51.379189 -64.199928 55.991371 97.740257 -5.399879 -24.145025 6.650468 -1.013623 0.016685 24.523001 69.135307 16.442001 17.636625 -26.322731 52.41119 -19.466665 -14.395602 29.410393 1e-06 -8.774822 -1e-06 15.083269 -18.029449 6.805927 -0.609776 -1.795652 -3.889328 -4.807088 -11.046811 -2.937851 6e-06 -20.976015 -1e-06 -5.019969 -25.033556 -4.031879 6e-06 1e-06 1e-06 -10.634535 -5.686971 -3.565587 10.573275 -17.922951 -3.113901 2e-06 -13.821209 1e-06 -0.501776 -31.181505 -4.027015 -10.993887 -59.249069 7.375993 -13.982714 -7.150198 -2.875041 13.772731 -8.401491 -3.218243 0.347736 -34.211544 0.771653 -0.963028 -17.733366 2.62102 0.0 -0.0 -1e-06 -17.34642 -20.095217 -4.201781 21.757561 -1.638375 3.866426 1e-06 -6.338827 -0.0 -1.697589 -22.591749 -6.194007 -0.0 -4e-06 -2e-06 160.490433 -71.531448 21.579905 90.64727 -5.56003 -21.837656 4.70643 -0.705608 -0.047023 60.793766 74.658806 59.88163 22.182117 -20.375902 49.933327 -16.701822 -16.74353 28.47654 -2e-06 -12.690601 0.0 15.730384 -17.33684 2.952171 -0.10592 -1.513857 -4.275882 -5.039041 -5.612873 -2.953557 4e-06 -11.020527 -2e-06 -6.111298 -15.895338 -3.840471 -0.0 -1e-06 0.0 -10.283371 -5.68029 -4.34184 11.028296 -11.302409 -2.372634 -1.384268 -14.238585 -6.320123 -0.625438 -26.924204 -3.827603 -4.4202 -49.724052 -3.835453 -13.708524 -7.363479 -3.72094 18.14115 -14.052742 -3.242676 5e-06 -18.787271 -2e-06 -0.429712 -8.456045 2.555504 -0.0 -2e-06 -0.0 -15.923536 -20.09449 -5.473587 30.419218 -7.190825 1.735925 2e-06 -8.162925 -1e-06 -1.861901 -22.861479 -6.167945 0.0 -2e-06 -1e-06 114.427933 -1.410554 -0.173446 110.163475 0.553713 0.329073 -72.12941 1.408743 -4.893811 -7.501995 1.580429 2.300688 -1.000003 0.0 -0.0 -63.687519 -4.392358 8.471427 107.683189 -1.017519 -0.15414 -70.682152 10.791187 -17.929855 -6.964004 0.371461 2.16037 -1.000004 0.0 -1e-06 
0.0 0.0 0.0 0.0 -0.0 0.0 0.155239 48.674538 -0.535384 92.752632 -64.342529 87.667465 12.612328 -0.525776 -0.931137 -6.017137 -0.362023 -0.366119 13.041716 0.780348 -2.008951 21.24297 0.869432 2.572164 -2.526198 -0.708989 0.021937 -20.593838 0.574083 -0.183047 5e-06 0.0 0.0 -0.303074 -0.179793 -0.008514 -0.410896 -0.016363 -0.044611 -0.451168 -0.342108 0.017867 -51.238579 -64.31517 55.798538 97.666122 -5.407764 -23.962963 6.524544 -1.028494 0.011333 24.037397 69.056541 15.85537 17.636627 -26.322733 52.411213 -19.466665 -14.395602 29.410395 -2e-06 -8.774822 -2e-06 15.037274 -18.049616 6.788881 -0.609776 -1.795654 -3.889329 -4.807091 -11.046811 -2.937851 7e-06 -20.976015 -3e-06 -5.019967 -25.033552 -4.031882 6e-06 0.0 1e-06 -10.634535 -5.686969 -3.56559 10.573277 -17.922953 -3.113903 3e-06 -13.821212 -0.0 -0.501774 -31.181505 -4.027018 -10.976624 -59.165257 7.30796 -13.982716 -7.150197 -2.875044 13.772731 -8.401495 -3.218242 0.347736 -34.211555 0.771652 -0.963028 -17.73337 2.62102 0.0 0.0 -0.0 -17.346416 -20.095217 -4.201786 21.757559 -1.638376 3.866427 2e-06 -6.338823 0.0 -1.697588 -22.591742 -6.194007 -0.0 -7e-06 -2e-06 160.6716 -71.543449 21.442596 90.676544 -5.49316 -21.656693 4.59251 -0.697403 -0.044501 60.249092 74.730309 59.317017 22.182119 -20.375898 49.933327 -16.701817 -16.74353 28.476534 -2e-06 -12.690603 -1e-06 15.711655 -17.327629 2.953464 -0.10592 -1.513856 -4.275882 -5.039041 -5.612871 -2.953557 5e-06 -11.020523 -2e-06 -6.111298 -15.89533 -3.840471 -0.0 -0.0 0.0 -10.283371 -5.680288 -4.341839 11.028296 -11.302403 -2.372633 -1.384268 -14.238575 -6.320122 -0.625438 -26.924187 -3.8276 -4.433172 -49.729065 -3.801571 -13.708526 -7.363474 -3.72094 18.141151 -14.052739 -3.242675 6e-06 -18.787268 -1e-06 -0.429712 -8.456044 2.555505 -0.0 -1e-06 -0.0 -15.923536 -20.094482 -5.473586 30.419218 -7.190827 1.735926 2e-06 -8.162922 0.0 -1.861902 -22.861469 -6.167941 0.0 -3e-06 -1e-06 114.488182 -1.405461 -0.213361 110.11972 0.559723 0.315676 -71.98159 1.468372 -4.952089 -7.451963 1.576592 2.296426 -1.0 0.0 -0.0 -63.61684 -4.406493 8.479292 107.680023 -1.015949 -0.165304 -70.678955 10.744786 -17.901836 -6.918324 0.367964 2.159116 -1.000001 -0.0 -0.0 
